0
SECTION
2
HEADER
9
$INSUNITS
70
4
0
ENDSEC
0
SECTION
2
ENTITIES
0
LWPOLYLINE
8
OUTLINE
90
4
70
1
10
-200.000
20
-130.000
10
200.000
20
-130.000
10
200.000
20
130.000
10
-200.000
20
130.000
0
LWPOLYLINE
8
TRACK
90
96
70
1
10
155.000
20
0.000
10
154.459
20
10.124
10
152.845
20
20.122
10
150.181
20
29.873
10
146.510
20
39.257
10
141.886
20
48.164
10
136.380
20
56.490
10
130.074
20
64.146
10
123.063
20
71.050
10
115.448
20
77.140
10
107.341
20
82.365
10
98.854
20
86.693
10
90.107
20
90.107
10
81.214
20
92.607
10
72.292
20
94.213
10
63.450
20
94.960
10
54.792
20
94.903
10
46.412
20
94.115
10
38.396
20
92.697
10
30.817
20
90.785
10
23.731
20
88.566
10
17.165
20
86.293
10
11.097
20
84.289
10
5.434
20
82.900
10
0.000
20
82.402
10
-5.434
20
82.900
10
-11.097
20
84.289
10
-17.165
20
86.293
10
-23.731
20
88.566
10
-30.817
20
90.785
10
-38.396
20
92.697
10
-46.412
20
94.115
10
-54.792
20
94.903
10
-63.450
20
94.960
10
-72.292
20
94.213
10
-81.214
20
92.607
10
-90.107
20
90.107
10
-98.854
20
86.693
10
-107.341
20
82.365
10
-115.448
20
77.140
10
-123.063
20
71.050
10
-130.074
20
64.146
10
-136.380
20
56.490
10
-141.886
20
48.164
10
-146.510
20
39.257
10
-150.181
20
29.873
10
-152.845
20
20.122
10
-154.459
20
10.124
10
-155.000
20
0.000
10
-154.459
20
-10.124
10
-152.845
20
-20.122
10
-150.181
20
-29.873
10
-146.510
20
-39.257
10
-141.886
20
-48.164
10
-136.380
20
-56.490
10
-130.074
20
-64.146
10
-123.063
20
-71.050
10
-115.448
20
-77.140
10
-107.341
20
-82.365
10
-98.854
20
-86.693
10
-90.107
20
-90.107
10
-81.214
20
-92.607
10
-72.292
20
-94.213
10
-63.450
20
-94.960
10
-54.792
20
-94.903
10
-46.412
20
-94.115
10
-38.396
20
-92.697
10
-30.817
20
-90.785
10
-23.731
20
-88.566
10
-17.165
20
-86.293
10
-11.097
20
-84.289
10
-5.434
20
-82.900
10
-0.000
20
-82.402
10
5.434
20
-82.900
10
11.097
20
-84.289
10
17.165
20
-86.293
10
23.731
20
-88.566
10
30.817
20
-90.785
10
38.396
20
-92.697
10
46.412
20
-94.115
10
54.792
20
-94.903
10
63.450
20
-94.960
10
72.292
20
-94.213
10
81.214
20
-92.607
10
90.107
20
-90.107
10
98.854
20
-86.693
10
107.341
20
-82.365
10
115.448
20
-77.140
10
123.063
20
-71.050
10
130.074
20
-64.146
10
136.380
20
-56.490
10
141.886
20
-48.164
10
146.510
20
-39.257
10
150.181
20
-29.873
10
152.845
20
-20.122
10
154.459
20
-10.124
0
LWPOLYLINE
8
TRACK
90
96
70
1
10
135.000
20
0.000
10
134.480
20
8.814
10
132.930
20
17.501
10
130.374
20
25.933
10
126.855
20
33.991
10
122.432
20
41.560
10
117.177
20
48.536
10
111.177
20
54.826
10
104.530
20
60.350
10
97.344
20
65.043
10
89.734
20
68.855
10
81.823
20
71.757
10
73.736
20
73.736
10
65.597
20
74.799
10
57.531
20
74.975
10
49.656
20
74.316
10
42.086
20
72.896
10
34.926
20
70.823
10
28.268
20
68.245
10
22.187
20
65.360
10
16.728
20
62.429
10
11.885
20
59.751
10
7.586
20
57.620
10
3.687
20
56.259
10
0.000
20
55.792
10
-3.687
20
56.259
10
-7.586
20
57.620
10
-11.885
20
59.751
10
-16.728
20
62.429
10
-22.187
20
65.360
10
-28.268
20
68.245
10
-34.926
20
70.823
10
-42.086
20
72.896
10
-49.656
20
74.316
10
-57.531
20
74.975
10
-65.597
20
74.799
10
-73.736
20
73.736
10
-81.823
20
71.757
10
-89.734
20
68.855
10
-97.344
20
65.043
10
-104.530
20
60.350
10
-111.177
20
54.826
10
-117.177
20
48.536
10
-122.432
20
41.560
10
-126.855
20
33.991
10
-130.374
20
25.933
10
-132.930
20
17.501
10
-134.480
20
8.814
10
-135.000
20
0.000
10
-134.480
20
-8.814
10
-132.930
20
-17.501
10
-130.374
20
-25.933
10
-126.855
20
-33.991
10
-122.432
20
-41.560
10
-117.177
20
-48.536
10
-111.177
20
-54.826
10
-104.530
20
-60.350
10
-97.344
20
-65.043
10
-89.734
20
-68.855
10
-81.823
20
-71.757
10
-73.736
20
-73.736
10
-65.597
20
-74.799
10
-57.531
20
-74.975
10
-49.656
20
-74.316
10
-42.086
20
-72.896
10
-34.926
20
-70.823
10
-28.268
20
-68.245
10
-22.187
20
-65.360
10
-16.728
20
-62.429
10
-11.885
20
-59.751
10
-7.586
20
-57.620
10
-3.687
20
-56.259
10
-0.000
20
-55.792
10
3.687
20
-56.259
10
7.586
20
-57.620
10
11.885
20
-59.751
10
16.728
20
-62.429
10
22.187
20
-65.360
10
28.268
20
-68.245
10
34.926
20
-70.823
10
42.086
20
-72.896
10
49.656
20
-74.316
10
57.531
20
-74.975
10
65.597
20
-74.799
10
73.736
20
-73.736
10
81.823
20
-71.757
10
89.734
20
-68.855
10
97.344
20
-65.043
10
104.530
20
-60.350
10
111.177
20
-54.826
10
117.177
20
-48.536
10
122.432
20
-41.560
10
126.855
20
-33.991
10
130.374
20
-25.933
10
132.930
20
-17.501
10
134.480
20
-8.814
0
ENDSEC
0
EOF
